<svg width="200" height="200" viewBox="0 0 200 200" fill="none" xmlns="http://www.w3.org/2000/svg">
<g id="heroSvg 1">
<g id="consult-experts--work-job-office-company-consult-experts">
<g id="light bulb">
<path id="vector" d="M168.149 106.935C167.893 97.3991 169.143 103.768 167.491 96.3971C165.825 88.9701 160.191 89.5621 157.214 80.5291C154.269 71.5831 157.138 60.5071 166.229 55.7861C184.879 46.1001 201.287 70.9781 187.761 87.0591C185.616 89.6101 182.968 90.3121 181.65 95.5301C180.056 101.846 181.636 100.991 180.939 107.748C180.364 113.313 168.334 113.864 168.149 106.935ZM177.216 91.2121C177.848 97.8881 176.765 100.675 178.335 100.536C180.61 100.336 177.067 94.3301 184.82 86.4431C190.808 80.3521 192.539 71.2011 187.331 63.4301C174.251 43.9141 145.309 66.9301 164.99 87.8701C170.962 94.2241 168.859 99.4901 170.596 100.22C171.031 100.386 171.488 100.489 171.952 100.528C172.403 100.583 172.582 100.419 172.564 99.9481C172.391 95.4571 172.991 91.1331 172.552 86.4911C172.413 85.0141 170.383 85.9111 168.752 83.7511C166.64 80.9571 166.709 75.4401 169.339 75.1331C172.327 74.7841 173.217 80.4131 173.629 83.3951C173.839 84.9201 173.871 84.9011 175.406 84.8491C176.47 84.8121 176.042 84.6161 176.764 80.5031C178.064 73.0811 183.217 73.7831 182.64 79.7411C182 86.3771 177.4 84.6181 177.4 86.5001C177.393 88.0691 177.166 89.6361 177.216 91.2121ZM176.016 90.3811C176.058 85.9661 176.362 86.2381 174.516 86.0651C173.306 85.9521 174.463 85.8231 173.604 98.7411C173.477 100.655 173.546 100.614 175.475 100.701C177.288 100.783 175.927 99.5921 176.013 90.3811H176.016ZM174.185 110.681C176.146 110.649 179.237 109.781 179.422 107.637C179.509 106.626 179.422 106.837 178.722 107.085C173.813 108.811 169.974 107.216 169.851 107.504C169.173 109.092 172.349 110.438 174.182 110.677L174.185 110.681ZM171.792 84.1131C172.535 84.3961 172.382 84.1211 171.971 81.4871C171.734 79.9681 170.722 76.2721 169.521 76.3871C168.155 76.5191 167.8 82.5931 171.789 84.1091L171.792 84.1131ZM179.247 103.546C180 103.395 179.67 102.757 179.654 102.329C179.638 101.88 179.254 101.939 178.921 101.997C171.748 103.23 169.179 100.956 169.49 102.538C169.59 103.053 169.05 103.945 170.144 104.023C173.185 104.281 176.247 104.12 179.244 103.542L179.247 103.546ZM180.487 76.4221C178.603 76.0731 177.487 83.9981 177.72 84.1671C177.991 84.3671 178.255 84.0581 178.509 83.9461C181.989 82.4131 181.87 76.6741 180.484 76.4181L180.487 76.4221ZM179.012 106.202C179.877 106.002 179.495 105.335 179.512 104.856C179.555 103.721 177.812 106.287 170.405 105.085C169.605 104.955 169.487 105.1 169.582 105.904C169.736 107.218 177.607 106.518 179.009 106.2L179.012 106.202Z" fill="#38A1FF"/>
</g>
<g id="chat box">
<path id="vector_2" d="M152.466 43.9938C151.236 46.8188 150.932 45.9018 127.807 46.6428C122.672 46.8078 122.35 46.4308 120.707 47.6308C98.481 63.8558 102.907 58.9848 106.232 51.0048C107.668 47.5598 108.332 47.3168 106.94 47.3048C93.84 47.1558 94.318 49.2608 93.249 32.2048C91.649 6.63981 93.072 9.14081 101.837 8.52581C117.983 7.39381 141.666 7.64581 144.56 7.65081C149.707 7.66181 151.823 7.52781 152.582 11.2178C153.454 15.4608 154.5 39.3218 152.466 43.9938ZM109.5 45.1298C110.557 45.1558 111.2 45.9168 110.358 47.5908C105.545 57.1508 104.52 56.5838 117.895 46.6088C121.072 44.2398 120.354 44.7358 134.095 44.3708C148.735 43.9818 149.918 44.7758 150.812 41.7168C151.759 38.4798 151.492 30.3468 151.393 27.1708C150.881 10.7518 150.657 10.2148 148.834 9.87081C142.182 8.60781 100.734 10.4278 97.502 10.7458C96.002 10.8928 94.926 11.4668 95.025 14.7018C96.112 50.1618 93.243 44.7398 109.5 45.1298Z" fill="#38A1FF"/>
<path id="vector_3" d="M123.973 18.4706C103.91 18.5016 102.115 19.1466 102.004 17.5246C101.888 15.8366 101.258 15.7866 140.812 15.8886C142.645 15.8245 144.479 15.984 146.273 16.3636C147.064 16.6556 147.151 17.4426 146.303 17.8066C144.7 18.4926 128.56 18.4636 123.973 18.4706Z" fill="#38A1FF"/>
<path id="vector_4" d="M103.328 25.258C101.304 25.145 101.441 23.071 103.483 22.992C116.53 22.486 136.106 22.604 140.72 22.7C146.096 22.811 146.698 23.129 146.72 23.934C146.734 24.574 146.14 24.74 145.599 24.807C141.5 25.313 109.119 25.582 103.328 25.258Z" fill="#38A1FF"/>
<path id="vector_5" d="M135.693 32.2398C102.24 32.2398 101.916 32.7608 101.91 31.0328C101.91 29.6538 103.998 29.8738 105.334 29.8328C112.081 29.6328 137.593 29.3328 145.515 30.0328C146.05 30.0808 146.525 30.3258 146.557 30.9018C146.655 32.6788 140.756 31.7748 135.693 32.2398Z" fill="#38A1FF"/>
</g>
<g id="person">
<path id="vector_6" d="M59.0531 106.081C71.4921 123.611 70.9531 128.209 69.8531 120.088C69.0881 114.41 67.8451 107.005 66.0441 98.6748C64.5441 91.7548 64.7561 90.9528 63.4791 91.3038C46.9671 95.8458 33.7791 107.842 28.7091 124.436C18.0501 159.325 44.5831 180.255 65.2331 176.462C75.7611 174.528 82.3241 170.228 90.5441 164.407C92.5281 163.001 92.5061 162.796 91.5361 160.924C87.1611 152.48 89.8801 149.006 87.9081 148.536C70.0891 144.296 54.3221 147.66 46.3081 147.868C46.8325 147.422 47.4609 147.116 48.1351 146.978C55.3581 144.784 56.5701 146.24 56.3491 144.258C55.2731 134.581 49.0111 108.217 56.1031 132.002C57.1424 136.008 57.9108 140.079 58.4031 144.189C58.7691 146.527 63.9171 142.157 82.2771 145.525C90.3001 146.996 90.1421 147.3 90.2691 149.208C90.4803 153.767 91.7589 158.213 94.0021 162.188C94.4221 162.908 94.1251 163.317 93.7021 163.788C87.3111 170.872 67.9021 184.314 49.8721 177.428C46.6601 176.201 46.7111 176.07 46.6361 176.82C46.2711 180.46 46.4571 189.974 45.6201 193.913C45.0591 196.551 44.6651 193.92 44.5201 191.095C43.7831 176.566 45.3841 175.642 43.4401 174.523C8.03303 154.134 25.2511 94.7998 65.7391 89.2588C69.8321 88.6978 70.0301 89.0908 69.9531 88.0368C68.7591 71.7638 69.5611 70.8068 67.1891 69.2898C63.3891 66.8578 62.2231 65.6828 61.9761 64.0508C61.3761 60.0448 69.0431 61.7158 70.2221 64.8038C62.2381 60.8178 60.2761 63.4568 67.9491 68.4558C70.4091 70.0558 70.2111 72.2188 70.5491 80.0218C70.6661 82.7288 71.0491 85.4218 71.0851 88.1308C71.1051 89.6948 76.4371 94.2308 77.6601 95.2098C80.8151 97.7358 83.6151 90.8408 84.5901 91.6238C84.6357 91.661 84.6732 91.7072 84.7002 91.7594C84.7272 91.8117 84.7432 91.869 84.7471 91.9277C84.7511 91.9864 84.7429 92.0453 84.7231 92.1007C84.7033 92.1561 84.6723 92.2069 84.6321 92.2498C82.6911 95.2588 82.4371 95.2138 83.0611 95.6198C89.7881 99.9878 89.4861 101.194 90.2441 100.02C91.1029 98.6065 91.8531 97.1299 92.4881 95.6028C93.2561 96.7438 91.7291 100.058 91.1301 101.294C90.5311 102.53 89.9191 102.678 88.7921 101.863C85.8161 99.7088 85.7921 99.0878 85.4191 99.8068C83.2061 104.065 83.1071 103.473 83.6501 104.243C87.7811 110.096 87.2581 109.177 90.8901 143.243C91.1761 145.927 91.4131 145.46 82.2561 143.311C81.8761 143.222 81.5421 143.158 81.4891 142.647C81.0891 138.847 80.4011 135.09 79.9201 131.303C78.2201 117.932 79.7071 128.02 77.7131 112.203C77.5521 110.922 79.6801 106.275 80.5381 104.648C81.0041 103.766 80.6281 104.035 77.2381 100.996C76.5301 100.362 76.7581 100.703 73.5781 104.429C72.6061 105.569 71.3781 106.511 72.5231 104.499C76.2391 97.9668 78.4331 97.3718 76.8111 96.2928C71.6701 92.8728 71.5371 89.9378 69.7771 90.2228C66.0161 90.8318 65.9661 90.4618 66.1851 91.3658C70.5087 107.89 73.3045 124.776 74.5371 141.812C74.6841 143.695 72.4191 143.989 72.2461 141.834C71.1831 128.552 71.6941 130.51 68.1461 123.316C62.2651 111.386 54.5461 104.592 58.8261 104.516C60.9811 104.48 61.2911 102.716 60.9321 101.339C60.2641 98.7998 57.4111 97.2078 58.0001 96.4998C58.6841 95.6808 62.6451 98.7848 62.4711 102.188C62.3591 104.371 61.4001 105.53 59.0531 106.081Z" fill="#191919"/>
<path id="vector_7" d="M94.0762 90.8541C104.976 126.36 100.07 128.169 104.012 113.8C106.163 105.959 107.019 106.449 105.35 105.822C102.17 104.629 101.513 102.613 101.684 99.4571C101.733 98.5361 101.9 95.8461 102.825 95.9571C103.242 96.0081 103.173 96.3781 103.203 96.6381C103.762 101.533 103.234 103.238 106.715 104.207C109.745 105.048 108.332 106.634 106.302 113.397C101.939 127.93 103.196 127.96 103.662 131.041C104.553 136.941 105.55 138.949 103.926 139.241C101.682 139.641 103.626 138.661 95.0162 101.298C94.2452 97.9501 93.3502 94.6301 92.8002 91.2341C92.7342 90.8341 92.5842 90.7201 92.1882 90.7151C88.3052 90.6701 88.1442 90.5861 88.1542 90.1231C88.1663 89.946 88.2472 89.7806 88.3798 89.6625C88.5123 89.5444 88.6858 89.4828 88.8632 89.4911C96.3922 88.8911 103.604 89.7491 110.282 93.6611C124.625 102.061 133.389 114.151 138.235 128.991C138.647 130.252 138.613 130.263 139.857 129.711C153.985 123.441 168.627 125.294 157.784 126.786C140.628 129.145 133.525 135.57 127.531 139.266C126.873 139.672 126.509 138.931 128.268 137.342C136.104 130.267 138.132 131.806 137.061 130.028C134.061 125.055 131.698 115.438 122.555 105.91C107.739 90.4751 94.3902 90.6771 94.0762 90.8541Z" fill="#191919"/>
<path id="vector_8" d="M120.716 184.783C119.995 181.811 120.397 174.493 115.496 129.149C114.043 115.701 113.906 115.692 114.508 115.639C115.433 115.558 116.198 123.664 118.242 136.865C122.224 162.584 119.973 163.429 121.922 163.892C133.732 166.698 152.365 162.792 164.085 148.556C171.085 140.05 170.531 137.162 172.3 132.014C172.488 131.465 173.313 131.322 173.246 133.082C172.714 147.082 153.114 170.757 122.515 165.682C120.485 165.346 121.897 164.482 121.754 182.025C121.726 185.4 121.51 188.058 120.716 184.783Z" fill="#191919"/>
<path id="vector_9" d="M69.4739 38.0049C72.4739 36.1149 84.7739 35.1919 92.2109 47.7619C98.5489 58.4799 98.7519 76.6619 87.8009 82.5879C85.8729 83.6319 85.6009 82.9599 85.6959 84.8739C85.9399 89.5439 85.9779 89.6149 85.5309 89.6739C85.0259 89.7349 85.0899 89.2339 85.0599 88.9079C84.9169 87.3709 84.7359 85.8349 84.6699 84.2939C84.6499 83.8079 84.3569 83.7119 83.8579 83.7039C82.8575 83.8332 81.8406 83.7253 80.8897 83.3888C79.9387 83.0523 79.0803 82.4967 78.3839 81.7669C77.3639 80.7619 77.6839 80.2839 78.8419 81.1229C80.2635 82.1608 82.0188 82.6363 83.7699 82.4579C86.555 82.0882 89.0934 80.6675 90.8649 78.4869C96.9199 71.3869 96.1489 58.2409 91.6159 49.7869C84.3999 36.3349 70.4999 38.7389 69.4739 38.0049Z" fill="#191919"/>
<path id="vector_10" d="M184.332 126.067C184.002 128.144 172.232 134.418 164.381 128.835C160.29 125.927 161.881 118.917 166.725 115.857C167.737 115.219 168.697 115.15 168.837 115.321C169.051 115.583 168.709 115.827 167.127 117.396C161.527 122.947 164.042 127.364 166.672 128.32C173.675 130.867 179.462 127.942 184.332 126.067Z" fill="#191919"/>
<path id="vector_11" d="M108.221 187.333C107.273 181.033 107.766 177.62 105.701 161.542C105.482 159.834 105.386 159.401 105.652 158.868C105.756 158.609 105.94 158.389 106.178 158.242C106.415 158.095 106.693 158.027 106.972 158.049C107.612 158.092 107.659 158.632 107.719 159.069C108.076 161.676 110.245 181.431 109.274 187.119C108.972 188.886 108.488 189.106 108.221 187.333Z" fill="#191919"/>
<path id="vector_12" d="M111.419 152.276C111.329 152.859 111.014 153.384 110.542 153.739C105.947 157.644 101.179 160.139 95.205 159.83C94.899 159.814 94.524 159.701 94.493 159.307C94.425 158.435 95.873 158.979 100.352 157.653C106.181 155.928 109.262 152.711 111.419 152.276Z" fill="#191919"/>
<path id="vector_13" d="M62.1001 46.4361C62.8931 44.2421 71.5891 39.5781 78.6121 43.9451C78.8291 44.0801 79.0871 44.2891 78.8981 44.5821C78.2671 45.5571 73.6001 40.6001 62.1001 46.4361Z" fill="#191919"/>
<path id="vector_14" d="M103.847 140.976C98.6081 143.99 95.3341 145.566 92.6681 148.709C92.4221 149 92.1081 149.437 91.6541 149.083C89.6201 147.5 100.757 139.747 103.847 140.976Z" fill="#191919"/>
<path id="vector_15" d="M73.7189 179.342C73.7579 178.301 73.9629 177.948 74.7399 177.942C75.3609 177.942 75.7669 178.157 75.7219 178.93C75.5799 181.405 75.5969 189.13 74.5549 189.138C74.1409 189.138 73.9759 187.879 73.9029 186.452C73.8609 185.627 73.6719 180.612 73.7189 179.342Z" fill="#191919"/>
<path id="vector_16" d="M61.0791 53.993C61.3251 51.152 66.5651 46.407 72.0981 47.619C72.6981 47.751 73.7051 47.911 73.6431 48.478C73.5121 49.681 68.1861 46.216 61.0791 53.993Z" fill="#191919"/>
<path id="vector_17" d="M175.614 126.7C175.192 126.642 174.629 126.648 174.58 126.157C174.52 125.557 175.58 125.324 176.16 125.175C180.848 123.975 183.86 121.658 184.168 122.086C184.654 122.76 180.723 126.354 175.614 126.7Z" fill="#191919"/>
<path id="vector_18" d="M181.538 117.664C182.071 118.735 179.019 122.778 173.785 123.929C172.819 124.141 172.431 123.154 173.361 122.694C176.359 121.506 179.126 119.804 181.538 117.664Z" fill="#191919"/>
<path id="vector_19" d="M170.379 122.162C170.079 122.144 169.736 122.191 169.652 121.822C169.583 121.522 169.817 121.337 170.067 121.235C174.59 119.391 176.904 115.211 177.315 115.464C178.366 116.111 175.3 121.329 170.379 122.162Z" fill="#191919"/>
<path id="vector_20" d="M112.077 147.857C112.552 149.608 104.886 155.04 104.167 153.257C104.004 152.857 104.594 152.548 105.123 152.281C110.1 149.766 110.363 148.391 112.077 147.857Z" fill="#191919"/>
<path id="vector_21" d="M110.64 144.876C110.759 147.709 103.429 151.753 102.835 150.503C102.388 149.562 105.518 148.778 107.785 147.065C108.7 146.373 109.608 145.668 110.64 144.876Z" fill="#191919"/>
<path id="vector_22" d="M108.047 143.167C108.624 145.519 101.427 149.095 100.902 147.694C100.469 146.535 103.067 146.912 108.047 143.167Z" fill="#191919"/>
<path id="vector_23" d="M61.4509 59.8728C61.7959 58.4565 62.5438 57.1705 63.6042 56.1703C64.6645 55.1701 65.992 54.4985 67.426 54.2368C69.241 53.9188 69.826 55.0518 68.804 55.1418C64.017 55.5608 62.0999 59.6588 61.4509 59.8728Z" fill="#191919"/>
<path id="vector_24" d="M79.5389 73.4688C79.7679 75.1988 80.9229 76.1048 83.2909 76.4848C83.1299 77.0018 82.7399 77.0948 82.2809 77.0988C78.8649 77.1308 77.3809 71.8228 79.6329 72.5308C83.1059 73.6228 83.3789 73.5728 83.2389 74.0478C83.1229 74.4418 82.9939 74.3098 79.5389 73.4688Z" fill="#191919"/>
<path id="vector_25" d="M83.6431 71.1671C85.9131 70.2841 86.4161 70.3671 86.3861 69.0241C86.2911 64.7321 85.5451 62.1241 86.1101 62.0241C86.6901 61.9241 87.1431 68.6191 87.1691 69.2071C87.2011 69.9131 87.1691 70.6781 86.4001 71.0181C85.9922 71.2781 85.5241 71.4284 85.0411 71.4545C84.5581 71.4806 84.0766 71.3816 83.6431 71.1671Z" fill="#191919"/>
<path id="vector_26" d="M75.6071 59.3C75.3331 58.045 77.3701 56.089 79.6941 56.415C80.8001 56.57 80.9571 57.645 79.7281 57.787C78.2593 57.9799 76.8517 58.4967 75.6071 59.3Z" fill="#191919"/>
<path id="vector_27" d="M92.6159 57.0597C91.1943 56.8352 89.7533 56.7588 88.3159 56.8317C88.1972 56.8401 88.0792 56.8069 87.9822 56.738C87.8852 56.6691 87.8151 56.5686 87.7839 56.4537C87.2999 55.0817 91.0859 54.4217 92.6159 57.0597Z" fill="#191919"/>
<path id="vector_28" d="M78.9689 62.7458C80.1829 62.8148 80.2769 65.2458 79.1139 65.2268C77.9509 65.2078 77.8529 62.6818 78.9689 62.7458Z" fill="#191919"/>
<path id="vector_29" d="M90.9441 64.08C89.7821 64.08 89.7541 61.822 90.8171 61.833C91.8801 61.844 91.9371 64.082 90.9441 64.08Z" fill="#191919"/>
</g>
<g id="target">
<path id="vector_30" d="M130.915 66.7622C139.384 67.1122 145.764 76.4932 143.206 84.9182C137.841 102.591 111.995 97.1372 114.146 79.4732C114.371 77.6738 114.959 75.9388 115.874 74.3732C116.028 74.1072 116.132 73.5622 116.592 74.0072C116.914 74.3192 117.721 74.3132 117.274 75.2072C116.236 77.1117 115.712 79.2537 115.754 81.4222C115.796 83.5908 116.402 85.711 117.512 87.5742C123.53 98.2652 139.898 95.0972 141.661 83.0552C143.391 71.2332 129.58 64.0612 120.669 71.1852C119.936 71.7722 119.593 70.9912 119.238 70.6852C118.826 70.3282 119.387 70.1222 119.627 69.9362C122.443 67.7532 125.627 66.5432 130.915 66.7622Z" fill="#38A1FF"/>
<path id="vector_31" d="M110.775 68.166C112.886 68.325 113.053 68.704 112.468 67.074C112.331 66.692 111.911 65.284 112.253 65.066C112.559 64.866 112.711 64.904 115.905 67.996C116.595 68.664 115.805 69.935 117.195 70.996C130.195 80.946 129.929 81.405 130.395 80.849C131.05 80.066 127.773 78.801 127.928 78.049C128.093 77.249 132.014 77.232 132.873 80.625C133.031 81.4575 132.912 82.3186 132.535 83.0775C132.159 83.8364 131.544 84.4515 130.786 84.8293C130.028 85.2071 129.167 85.3269 128.334 85.1706C127.501 85.0142 126.743 84.5902 126.173 83.963C123.831 81.42 126.354 79.651 125.451 78.963C115.142 71.091 116.221 71.249 114.008 71.526C112.828 71.674 112.589 71.183 109.963 69.226C109.682 69.017 109.275 68.848 109.368 68.451C109.461 68.054 109.7 68.166 110.775 68.166Z" fill="#38A1FF"/>
<path id="vector_32" d="M129 72.8392C125.225 72.6242 124.248 75.1222 123.412 73.8132C122.69 72.6842 133.349 68.3422 137.805 77.0132C138.745 78.9077 139.024 81.0624 138.597 83.1337C138.17 85.2051 137.062 87.0739 135.449 88.4422C128.012 95.0722 115.876 87.4362 120.049 77.4602C120.149 77.2322 120.19 76.7742 120.608 77.0012C121.725 77.6072 120.835 77.5262 120.45 80.1362C120.285 81.4532 120.43 82.7905 120.873 84.0418C121.315 85.2932 122.043 86.4241 123 87.3448C123.956 88.2655 125.113 88.9506 126.38 89.3458C127.647 89.7409 128.989 89.8352 130.299 89.6212C132.105 89.3154 133.768 88.4435 135.046 87.1314C136.325 85.8193 137.153 84.1348 137.412 82.3212C138.083 76.7932 133.339 72.5432 129 72.8392Z" fill="#38A1FF"/>
</g>
<g id="graph">
<path id="vector_33" d="M73.9509 29.8398C53.1449 30.0398 53.1919 30.5598 53.1999 28.8578C53.2769 13.4668 52.6279 13.5578 54.3809 13.5508C58.9749 13.5298 59.3809 13.2508 59.3809 14.6098C59.3549 28.8448 59.0489 28.8098 60.0809 28.8098C61.3309 28.8098 60.8619 28.8448 60.8599 12.4288C60.8599 9.89782 60.6489 9.20982 61.7229 9.20782C66.6469 9.19882 66.9629 8.86382 66.9609 10.3228C66.9499 17.8678 67.0049 24.9068 66.9489 27.6508C66.9329 28.4508 67.1339 28.6978 67.9549 28.6818C69.5279 28.6518 68.9089 28.7218 68.9129 6.41882C68.9129 5.11882 69.0129 5.01882 70.2929 5.01882C75.1519 5.02582 74.9729 4.70282 74.9749 6.32682C75.0089 29.8858 75.6689 29.8238 73.9509 29.8398ZM69.9389 27.8398C69.9309 29.1098 70.6269 28.4398 72.7239 28.6188C74.3239 28.7518 73.8569 29.3188 73.7799 9.08482C73.7699 6.36682 73.7559 6.40282 71.0309 6.37082C69.2219 6.34482 70.0759 6.31783 69.9389 27.8348V27.8398ZM61.9039 27.4598C61.9039 29.4018 62.1559 28.5518 65.0129 28.7658C66.0189 28.8408 65.8279 28.8438 65.7979 21.3918C65.7549 10.7918 66.1239 10.4698 64.7639 10.5398C62.5199 10.6558 61.8559 10.1498 61.8719 11.4498C61.8999 14.1248 61.8999 25.6178 61.8999 27.4548L61.9039 27.4598ZM54.3329 22.4658C54.3639 28.8908 54.0589 29.0068 55.0229 28.9308C57.7569 28.7168 58.2019 29.0798 58.2139 28.2488C58.2749 23.9028 58.1419 19.5618 58.0649 15.2178C58.0569 14.7638 57.8819 14.5908 57.4409 14.5988C54.2639 14.6568 54.1409 14.2648 54.2409 15.7328C54.3999 17.9718 54.3229 20.2168 54.3329 22.4608V22.4658Z" fill="#38A1FF"/>
</g>
<g id="chart">
<path id="vector_34" d="M24.684 105.1C4.50794 104.692 0.722937 77.0999 19.364 70.7829C20.374 70.4409 20.491 70.5009 20.792 71.5289C26.745 91.8769 21.8919 82.9059 36.3699 99.0989C37.2249 100.055 37.209 100.18 36.207 100.999C32.9934 103.723 28.8962 105.182 24.684 105.1ZM12.659 97.4669C13.703 98.7959 13.359 97.0059 23.159 88.1049C24.659 86.7429 23.811 87.2379 19.985 73.4219C19.842 72.9069 19.6589 72.7499 19.1439 72.9579C8.80994 77.1459 6.11594 89.1329 12.659 97.4669ZM33.694 100.567C35.026 99.7059 35.0219 99.6819 33.9739 98.5509C24.0249 87.7999 24.667 88.0529 24.02 88.7999C15.548 98.5189 13.241 98.3819 14.748 99.5729C17.3778 101.757 20.6424 103.033 24.056 103.212C27.4695 103.391 30.8498 102.463 33.694 100.567Z" fill="#38A1FF"/>
<path id="vector_35" d="M40.413 94.8919C38.849 96.3489 39.5371 95.9089 30.0131 85.9319C28.8301 84.6929 28.8131 84.4839 24.8961 70.9389C24.5721 69.8189 24.7151 69.5509 25.8841 69.3239C42.4071 66.1239 50.429 85.5639 40.413 94.8919ZM27.394 70.8569C26.094 71.0239 26.1331 70.4749 29.4511 81.2069C30.6701 85.1469 28.404 82.0289 38.8271 93.1819C39.2001 93.5819 39.4391 93.5699 39.7851 93.1469C41.5886 91.0372 42.7037 88.4262 42.9807 85.6645C43.2577 82.9027 42.6833 80.1223 41.3348 77.6964C39.9862 75.2704 37.9279 73.315 35.436 72.0925C32.9441 70.8699 30.138 70.4388 27.394 70.8569Z" fill="#38A1FF"/>
</g>
<g id="calculator">
<path id="vector_36" d="M52.3999 51.9592C52.4369 50.4262 52.4079 50.7872 41.9289 51.0452C39.9149 51.0942 40.8609 51.1742 40.7699 62.1182C40.7559 63.8022 40.6229 63.3072 51.2889 63.4282C53.2199 63.4502 52.1519 62.0882 52.3999 51.9592ZM50.4399 62.2352C42.0129 62.1682 42.0569 62.5572 42.0679 61.5132C42.1679 52.8482 41.5589 52.4282 42.5889 52.4222C51.1239 52.3772 51.1069 52.0802 51.1039 52.9222C51.0679 62.2552 51.3899 62.2432 50.4399 62.2352Z" fill="#38A1FF"/>
<path id="vector_37" d="M42.1551 49.0232C52.8701 49.1232 52.3031 49.6632 52.2801 46.6132C52.2021 36.3392 52.7731 36.4452 50.9721 36.4982C43.8411 36.7092 43.3561 36.6522 41.8821 36.6982C40.9361 36.7292 40.6391 36.7842 40.5591 37.9092C40.5591 37.9422 40.6031 47.3562 40.6201 47.6362C40.7001 48.9662 41.0301 49.0132 42.1551 49.0232ZM42.7691 38.0772C51.0831 38.0382 51.0591 37.6592 51.0411 38.7192C50.8921 47.7272 51.4751 47.9042 50.3411 47.8942C41.9101 47.8162 41.9301 48.2202 41.9341 47.2242C41.9691 38.0232 41.4831 38.0832 42.7691 38.0772Z" fill="#38A1FF"/>
<path id="vector_38" d="M38.9241 38.0509C38.9241 36.2079 39.0671 36.6609 28.5991 36.9769C26.6921 37.0349 27.3061 36.8299 27.3441 47.8579C27.3501 49.6579 27.1591 49.2369 37.7831 49.2749C39.4631 49.2809 38.9001 49.3809 38.9241 38.0509ZM29.0741 48.1459C28.6481 48.1839 28.6141 47.9289 28.6151 47.5989C28.6151 38.3589 28.3061 38.3859 29.1571 38.3709C37.7431 38.2179 37.7381 37.8359 37.7241 38.8879C37.5491 51.9629 39.8631 47.1869 29.0741 48.1459Z" fill="#38A1FF"/>
<path id="vector_39" d="M38.8001 52.058C38.7181 51.134 38.4551 51.002 37.7171 51.029C27.1841 51.406 26.9631 50.905 27.0891 52.587C27.3291 55.816 27.2201 59.052 27.2541 62.287C27.2711 63.973 27.0911 63.587 37.6111 63.625C38.6491 63.625 38.9951 63.297 38.8961 62.241C38.6711 59.871 38.8941 53.136 38.8001 52.058ZM28.9231 62.482C28.4651 62.519 28.4671 62.282 28.4671 61.961C28.4751 52.679 28.1471 52.768 29.0671 52.713C31.6851 52.553 34.3071 52.613 36.9251 52.544C37.4121 52.53 37.5911 52.689 37.5811 53.192C37.3241 66.173 39.9591 61.58 28.9231 62.482Z" fill="#38A1FF"/>
<path id="vector_40" d="M48.87 54.1701C48.496 54.3251 48.452 54.2981 45.155 57.8201C44.319 58.7121 42.749 60.1381 43.811 60.4201C45.173 59.6981 48.481 56.1381 49.495 54.9771C49.5708 54.8856 49.6131 54.7709 49.6151 54.6521C49.617 54.5333 49.5784 54.4173 49.5056 54.3234C49.4329 54.2294 49.3303 54.163 49.2147 54.1352C49.0992 54.1073 48.9776 54.1196 48.87 54.1701Z" fill="#38A1FF"/>
<path id="vector_41" d="M47.5721 58.9433C47.5752 59.1472 47.6575 59.3419 47.8015 59.4861C47.9456 59.6304 48.1401 59.713 48.344 59.7164C48.5479 59.7198 48.7451 59.6437 48.8938 59.5042C49.0426 59.3648 49.1313 59.173 49.1411 58.9693C49.1462 58.8642 49.1301 58.7592 49.0938 58.6605C49.0575 58.5618 49.0017 58.4714 48.9298 58.3947C48.8579 58.3179 48.7712 58.2564 48.6751 58.2138C48.5789 58.1712 48.4752 58.1483 48.37 58.1466C48.2649 58.1448 48.1604 58.1643 48.0629 58.2037C47.9654 58.2431 47.8768 58.3017 47.8024 58.376C47.7279 58.4503 47.6692 58.5388 47.6297 58.6363C47.5901 58.7337 47.5705 58.8381 47.5721 58.9433Z" fill="#38A1FF"/>
<path id="vector_42" d="M44.9081 56.1C45.9901 56.082 46.0081 54.567 45.0241 54.557C44.8229 54.5477 44.626 54.6172 44.4752 54.7507C44.3244 54.8842 44.2316 55.0713 44.2165 55.2721C44.2014 55.473 44.2652 55.6718 44.3943 55.8264C44.5235 55.9809 44.7077 56.0791 44.9081 56.1Z" fill="#38A1FF"/>
<path id="vector_43" d="M44.1409 43.4761C45.6239 43.6851 46.3409 43.3151 46.1999 44.5041C46.1779 44.6911 46.1089 46.2321 46.6799 46.1781C47.0509 46.1431 47.0729 45.7781 47.0209 44.1661C46.9959 43.3591 47.5319 43.6661 49.0669 43.5661C49.8979 43.5101 49.8169 42.6661 49.0809 42.6371C47.6199 42.5771 47.0659 42.9101 47.0609 41.8041C47.0539 40.1041 47.0609 39.8341 46.6459 39.8301C46.1459 39.8301 46.1959 40.5221 46.1669 41.0871C46.1729 43.2441 45.8499 42.3431 44.1569 42.7031C43.5499 42.8321 43.5269 43.3901 44.1409 43.4761Z" fill="#38A1FF"/>
<path id="vector_44" d="M35.4491 42.5C32.0101 42.351 29.9491 42.311 29.9761 43.089C30.0071 43.822 30.6361 43.682 35.3661 43.625C36.3561 43.614 36.3681 42.54 35.4491 42.5Z" fill="#38A1FF"/>
<path id="vector_45" d="M35.471 58.0073C32.565 58.0483 29.986 57.8073 29.992 58.6693C29.992 59.2693 30.587 59.1583 33.298 59.1583C34.0353 59.2081 34.7759 59.1786 35.507 59.0703C36.382 58.8393 36.173 58.0003 35.471 58.0073Z" fill="#38A1FF"/>
<path id="vector_46" d="M35.3599 56.9251C36.2309 56.8991 36.2029 55.8831 35.3759 55.8811C30.4509 55.8711 29.9219 55.7031 29.9029 56.4301C29.8879 57.0001 30.0199 57.0831 35.3599 56.9251Z" fill="#38A1FF"/>
</g>
</g>
</g>
</svg>
