<svg xmlns="http://www.w3.org/2000/svg" xmlns:xlink="http://www.w3.org/1999/xlink" version="1.1" xml:space="preserve" viewBox="0 0 1080 1080">
<desc>Created with Fabric.js 5.2.4</desc>
<defs>
</defs>
<g transform="matrix(1 0 0 1 540 540)" id="be679696-22b0-4dfb-89f2-866a664ec018">
</g>
<g transform="matrix(1 0 0 1 540 540)" id="1b2cfd88-fd4f-4994-9691-6593792160c1">
<rect style="stroke: none; stroke-width: 1; stroke-dasharray: none; stroke-linecap: butt; stroke-dashoffset: 0; stroke-linejoin: miter; stroke-miterlimit: 4; fill: rgb(255,255,255); fill-rule: nonzero; opacity: 1; visibility: hidden;" vector-effect="non-scaling-stroke" x="-540" y="-540" rx="0" ry="0" width="1080" height="1080"/>
</g>
<g transform="matrix(1 0 0 1 266.27 120.95)">
<g style="" vector-effect="non-scaling-stroke">
		<g transform="matrix(0.11 0 0 0.11 -116.84 -18.99)">
<path style="stroke: none; stroke-width: 1; stroke-dasharray: none; stroke-linecap: butt; stroke-dashoffset: 0; stroke-linejoin: miter; stroke-miterlimit: 4; fill: rgb(255,255,255); fill-rule: nonzero; opacity: 1;" vector-effect="non-scaling-stroke" transform=" translate(-1334.86, -827.15)" d="M 0 0 L 835.54 1628.16 C 843.5699999999999 1643.8200000000002 859.6899999999999 1653.67 877.29 1653.67 L 1209.42 1653.67 C 1227.15 1653.67 1243.3600000000001 1643.68 1251.3300000000002 1627.8500000000001 L 1404.3100000000002 1324.13 C 1410.2200000000003 1312.39 1422.2400000000002 1304.98 1435.39 1304.98 C 1448.24 1304.98 1460.0300000000002 1312.06 1466.0800000000002 1323.39 L 1629.5200000000002 1629.48 C 1637.6800000000003 1644.76 1653.5900000000001 1654.31 1670.9200000000003 1654.31 L 1996.1300000000003 1654.31 C 2013.7200000000003 1654.31 2029.8400000000004 1644.47 2037.8800000000003 1628.82 L 2663.76 409.8499999999999 C 2682.01 374.2999999999999 2656.2000000000003 332.0199999999999 2616.23 332.0199999999999 L 2417.21 332.0199999999999 C 2397.14 332.0199999999999 2378.77 343.25999999999993 2369.64 361.12999999999994 L 1867.6999999999998 1343.05 C 1861.2399999999998 1355.69 1848.2399999999998 1363.6399999999999 1834.0499999999997 1363.6399999999999 C 1819.9099999999996 1363.6399999999999 1806.9499999999998 1355.7499999999998 1800.4699999999998 1343.1799999999998 L 1293.33 360.92999999999984 C 1284.1599999999999 343.16999999999985 1265.84 332.0199999999998 1245.86 332.0199999999998 L 1043.8 332.0199999999998 C 1003.6099999999999 332.0199999999998 977.81 374.7299999999998 996.51 410.29999999999984 L 1272 934.3699999999999 C 1277.23 944.31 1277.33 956.1699999999998 1272.28 966.2099999999999 L 1083.1299999999999 1341.8799999999999 C 1076.7099999999998 1354.6299999999999 1063.6499999999999 1362.6799999999998 1049.37 1362.6799999999998 L 1036.2099999999998 1362.6799999999998 C 1021.9999999999998 1362.6799999999998 1008.9899999999998 1354.7099999999998 1002.5299999999999 1342.0399999999997 L 332.8599999999999 27.779999999999745 C 324.8599999999999 12.089999999999746 308.7999999999999 2.169999999999746 291.1899999999999 2.039999999999747 L 0.009999999999877218 -2.531308496145357e-13 L 0.009999999999877218 -0.010000000000253131 z" stroke-linecap="round"/>
</g>
		<g transform="matrix(0.11 0 0 0.11 35.71 -18.79)">
<path style="stroke: none; stroke-width: 1; stroke-dasharray: none; stroke-linecap: butt; stroke-dashoffset: 0; stroke-linejoin: miter; stroke-miterlimit: 4; fill: rgb(255,255,255); fill-rule: nonzero; opacity: 1;" vector-effect="non-scaling-stroke" transform=" translate(-2700.55, -828.9)" d="M 2816.11 360.31 L 2188.3 1585.6499999999999 C 2172.3 1616.8799999999999 2194.98 1653.9799999999998 2230.07 1653.9799999999998 L 2448.92 1653.9799999999998 C 2466.36 1653.9799999999998 2482.37 1644.3099999999997 2490.4700000000003 1628.87 L 2594.1600000000003 1431.4099999999999 C 2602.6900000000005 1415.1499999999999 2619.5400000000004 1404.9699999999998 2637.9 1404.9699999999998 L 3223.86 1404.9699999999998 C 3249.52 1404.9699999999998 3266.09 1377.7999999999997 3254.33 1354.9899999999998 L 3167.7599999999998 1186.9699999999998 C 3157.0299999999997 1166.1599999999999 3135.58 1153.0799999999997 3112.16 1153.0799999999997 L 2770.83 1153.0799999999997 C 2753.18 1153.0799999999997 2741.8199999999997 1134.3599999999997 2749.97 1118.6999999999996 L 3009.9199999999996 619.4799999999996 L 3053.1899999999996 619.4799999999996 L 3566.8699999999994 1628.0999999999995 C 3574.9499999999994 1643.9599999999994 3591.2799999999993 1653.8799999999994 3609.0699999999993 1653.7299999999996 C 3752.3699999999994 1652.5199999999995 4379.32 1647.2499999999995 4421.3099999999995 1647.2499999999995 C 4468.74 1647.2499999999995 4659.74 1548.5399999999995 4659.74 1374.1999999999996 C 4659.74 1199.8599999999997 4659.74 307.64999999999964 4659.74 228.16999999999962 C 4659.74 148.6899999999996 4530.2699999999995 3.8299999999996146 4403.36 3.8299999999996146 L 788.5899999999997 3.8299999999996146 C 748.0599999999997 3.8299999999996146 726.4299999999997 51.579999999999615 753.1599999999997 82.04999999999961 L 890.3099999999997 238.38999999999962 C 899.2599999999998 248.5899999999996 912.1799999999997 254.43999999999963 925.7399999999997 254.43999999999963 L 4296.959999999999 254.43999999999963 C 4323.879999999999 254.43999999999963 4384.7699999999995 274.3099999999996 4384.7699999999995 333.9199999999996 C 4384.7699999999995 393.52999999999963 4387.969999999999 1269.0699999999997 4387.969999999999 1293.4299999999996 C 4387.969999999999 1317.7899999999995 4371.3099999999995 1401.1099999999997 4303.36 1401.1099999999997 L 3810.2499999999995 1401.1099999999997 C 3787.9299999999994 1401.1099999999997 3767.4499999999994 1388.7199999999996 3757.0899999999997 1368.9399999999996 L 3229.91 361.74999999999955 C 3220.74 344.22999999999956 3202.66 333.2099999999995 3182.89 333.09999999999957 L 2863.95 331.23999999999955 C 2843.79 331.11999999999955 2825.2799999999997 342.35999999999956 2816.0899999999997 360.29999999999956 L 2816.0899999999997 360.30999999999955 z" stroke-linecap="round"/>
</g>
		<g transform="matrix(0.11 0 0 0.11 48.4 100.3)">
<path style="stroke: none; stroke-width: 1; stroke-dasharray: none; stroke-linecap: butt; stroke-dashoffset: 0; stroke-linejoin: miter; stroke-miterlimit: 4; fill: rgb(255,255,255); fill-rule: nonzero; opacity: 1;" vector-effect="non-scaling-stroke" transform=" translate(-2760.75, -1860.74)" d="M 2821.27 1790.38 C 2807.93 1781.7700000000002 2786.62 1777.47 2757.36 1777.47 L 2665.69 1777.47 L 2665.69 1944.02 L 2757.36 1944.02 C 2786.84 1944.02 2808.1400000000003 1939.72 2821.27 1931.11 C 2844.29 1916.05 2855.81 1892.27 2855.81 1859.78 C 2855.81 1845.58 2852.91 1832.56 2847.1 1820.72 C 2841.0699999999997 1807.81 2832.46 1797.7 2821.2799999999997 1790.38 L 2821.2799999999997 1790.38 z M 2807.39 1909.16 L 2807.39 1909.16 C 2796.42 1916.91 2778.45 1920.78 2753.49 1920.78 L 2693.45 1920.78 L 2693.45 1800.06 L 2753.49 1800.06 C 2777.7999999999997 1800.06 2795.5499999999997 1803.83 2806.75 1811.36 C 2820.52 1820.61 2827.41 1836.76 2827.41 1859.78 C 2827.41 1883.45 2820.73 1899.91 2807.39 1909.16 L 2807.39 1909.16 z" stroke-linecap="round"/>
</g>
		<g transform="matrix(0.11 0 0 0.11 68.98 100.3)">
<polygon style="stroke: none; stroke-width: 1; stroke-dasharray: none; stroke-linecap: butt; stroke-dashoffset: 0; stroke-linejoin: miter; stroke-miterlimit: 4; fill: rgb(255,255,255); fill-rule: nonzero; opacity: 1;" vector-effect="non-scaling-stroke" points="-13.88,83.28 13.88,83.28 13.88,-83.27 -13.88,-83.27 "/>
</g>
		<g transform="matrix(0.11 0 0 0.11 89.19 100.3)">
<path style="stroke: none; stroke-width: 1; stroke-dasharray: none; stroke-linecap: butt; stroke-dashoffset: 0; stroke-linejoin: miter; stroke-miterlimit: 4; fill: rgb(255,255,255); fill-rule: nonzero; opacity: 1;" vector-effect="non-scaling-stroke" transform=" translate(-3121.14, -1860.75)" d="M 3169.87 1846.54 L 3064.97 1846.54 L 3064.97 1800.06 L 3182.7799999999997 1800.06 L 3182.7799999999997 1824.27 L 3206.6699999999996 1817.49 C 3206.6699999999996 1801.99 3203.9799999999996 1791.46 3198.5999999999995 1785.86 C 3193.2199999999993 1780.26 3182.8899999999994 1777.4699999999998 3167.6199999999994 1777.4699999999998 L 3078.8499999999995 1777.4699999999998 C 3063.7799999999993 1777.4699999999998 3053.5599999999995 1780.2099999999998 3048.1799999999994 1785.6999999999998 C 3042.7999999999993 1791.1899999999998 3040.109999999999 1801.5699999999997 3040.109999999999 1816.85 C 3040.109999999999 1838.1499999999999 3041.399999999999 1851.3899999999999 3043.979999999999 1856.55 C 3048.709999999999 1866.02 3060.329999999999 1870.75 3078.8399999999992 1870.75 L 3183.419999999999 1870.75 L 3183.419999999999 1920.78 L 3059.479999999999 1920.78 L 3059.479999999999 1893.99 L 3033.659999999999 1900.13 C 3033.659999999999 1917.13 3035.919999999999 1928.42 3040.439999999999 1934.0200000000002 C 3045.609999999999 1940.6900000000003 3056.359999999999 1944.0300000000002 3072.7199999999993 1944.0300000000002 L 3169.879999999999 1944.0300000000002 C 3184.939999999999 1944.0300000000002 3195.169999999999 1941.2800000000002 3200.5499999999993 1935.8000000000002 C 3205.9299999999994 1930.3100000000002 3208.6199999999994 1919.9400000000003 3208.6199999999994 1904.65 L 3208.6199999999994 1885.93 C 3208.6199999999994 1870.8700000000001 3205.9199999999996 1860.54 3200.5499999999993 1854.94 C 3195.169999999999 1849.3500000000001 3184.9499999999994 1846.55 3169.879999999999 1846.55 L 3169.879999999999 1846.55 z" stroke-linecap="round"/>
</g>
		<g transform="matrix(0.11 0 0 0.11 118.06 100.3)">
<path style="stroke: none; stroke-width: 1; stroke-dasharray: none; stroke-linecap: butt; stroke-dashoffset: 0; stroke-linejoin: miter; stroke-miterlimit: 4; fill: rgb(255,255,255); fill-rule: nonzero; opacity: 1;" vector-effect="non-scaling-stroke" transform=" translate(-3376.12, -1860.75)" d="M 3461.66 1832.67 C 3461.66 1810.72 3460.47 1797.16 3458.1099999999997 1792 C 3453.5899999999997 1782.32 3441.8599999999997 1777.47 3422.9199999999996 1777.47 L 3329.6399999999994 1777.47 C 3314.5799999999995 1777.47 3304.2999999999993 1780.21 3298.8199999999993 1785.7 C 3293.3299999999995 1791.19 3290.5899999999992 1801.57 3290.5899999999992 1816.8500000000001 L 3290.5899999999992 1904.64 C 3290.5899999999992 1919.93 3293.329999999999 1930.3000000000002 3298.8199999999993 1935.7900000000002 C 3304.2999999999993 1941.2700000000002 3314.5799999999995 1944.0200000000002 3329.6399999999994 1944.0200000000002 L 3422.9199999999996 1944.0200000000002 C 3438.2 1944.0200000000002 3448.47 1941.2700000000002 3453.7499999999995 1935.7900000000002 C 3459.0199999999995 1930.3000000000002 3461.6499999999996 1919.9300000000003 3461.6499999999996 1904.64 L 3461.6499999999996 1884.95 L 3433.8999999999996 1879.14 L 3433.8999999999996 1920.7700000000002 L 3318.3399999999997 1920.7700000000002 L 3318.3399999999997 1800.0500000000002 L 3433.8999999999996 1800.0500000000002 L 3433.8999999999996 1837.8200000000002 L 3461.6499999999996 1832.66 L 3461.66 1832.67 z" stroke-linecap="round"/>
</g>
		<g transform="matrix(0.11 0 0 0.11 146.66 100.3)">
<path style="stroke: none; stroke-width: 1; stroke-dasharray: none; stroke-linecap: butt; stroke-dashoffset: 0; stroke-linejoin: miter; stroke-miterlimit: 4; fill: rgb(255,255,255); fill-rule: nonzero; opacity: 1;" vector-effect="non-scaling-stroke" transform=" translate(-3629.18, -1860.75)" d="M 3686.96 1777.47 L 3571.73 1777.47 C 3556.67 1777.47 3546.39 1780.21 3540.91 1785.7 C 3535.42 1791.18 3532.68 1801.57 3532.68 1816.8500000000001 L 3532.68 1904.65 C 3532.68 1919.93 3535.4199999999996 1930.3100000000002 3540.91 1935.8000000000002 C 3546.39 1941.2800000000002 3556.67 1944.0300000000002 3571.73 1944.0300000000002 L 3686.96 1944.0300000000002 C 3702.02 1944.0300000000002 3712.25 1941.2800000000002 3717.62 1935.8000000000002 C 3722.99 1930.3200000000002 3725.69 1919.9400000000003 3725.69 1904.65 L 3725.69 1816.8500000000001 C 3725.69 1801.5700000000002 3723 1791.19 3717.62 1785.7 C 3712.24 1780.21 3702.0099999999998 1777.47 3686.96 1777.47 z M 3698.26 1920.78 L 3698.26 1920.78 L 3560.4300000000003 1920.78 L 3560.4300000000003 1800.06 L 3698.26 1800.06 L 3698.26 1920.78 z" stroke-linecap="round"/>
</g>
		<g transform="matrix(0.11 0 0 0.11 173.81 100.3)">
<polygon style="stroke: none; stroke-width: 1; stroke-dasharray: none; stroke-linecap: butt; stroke-dashoffset: 0; stroke-linejoin: miter; stroke-miterlimit: 4; fill: rgb(255,255,255); fill-rule: nonzero; opacity: 1;" vector-effect="non-scaling-stroke" points="2.91,55.52 -70.68,-83.27 -100.7,-83.27 -9.67,83.28 13.57,83.28 100.71,-83.27 73.28,-83.27 "/>
</g>
		<g transform="matrix(0.11 0 0 0.11 200.51 100.3)">
<polygon style="stroke: none; stroke-width: 1; stroke-dasharray: none; stroke-linecap: butt; stroke-dashoffset: 0; stroke-linejoin: miter; stroke-miterlimit: 4; fill: rgb(255,255,255); fill-rule: nonzero; opacity: 1;" vector-effect="non-scaling-stroke" points="-53.1,7.43 27.92,7.43 27.92,-14.52 -53.1,-14.52 -53.1,-61.01 79.56,-61.01 79.56,-83.27 -80.86,-83.27 -80.86,83.28 80.86,83.28 80.86,60.36 -53.1,60.36 "/>
</g>
		<g transform="matrix(0.11 0 0 0.11 227.64 100.3)">
<path style="stroke: none; stroke-width: 1; stroke-dasharray: none; stroke-linecap: butt; stroke-dashoffset: 0; stroke-linejoin: miter; stroke-miterlimit: 4; fill: rgb(255,255,255); fill-rule: nonzero; opacity: 1;" vector-effect="non-scaling-stroke" transform=" translate(-4344.79, -1860.75)" d="M 4401.91 1877.21 C 4414.82 1873.55 4421.28 1863.44 4421.28 1846.8700000000001 L 4421.28 1809.7600000000002 C 4421.28 1798.1400000000003 4418.42 1789.8600000000001 4412.73 1784.9000000000003 C 4407.03 1779.9500000000003 4398.15 1777.4700000000003 4386.099999999999 1777.4700000000003 L 4251.829999999999 1777.4700000000003 L 4251.829999999999 1944.0300000000002 L 4279.579999999999 1944.0300000000002 L 4279.579999999999 1879.15 L 4328.649999999999 1879.15 L 4396.4299999999985 1944.0300000000002 L 4437.749999999998 1944.0300000000002 L 4361.569999999998 1879.15 C 4384.379999999998 1879.15 4397.829999999998 1878.51 4401.919999999998 1877.21 L 4401.919999999998 1877.21 z M 4279.57 1857.53 L 4279.57 1857.53 L 4279.57 1799.1 L 4375.12 1799.1 C 4381.79 1799.1 4386.47 1800.34 4389.16 1802.81 C 4391.849999999999 1805.29 4393.2 1809.75 4393.2 1816.2 L 4393.2 1840.41 C 4393.2 1847.0900000000001 4391.849999999999 1851.6000000000001 4389.16 1853.97 C 4386.46 1856.34 4381.78 1857.52 4375.12 1857.52 L 4279.57 1857.52 L 4279.57 1857.52 z" stroke-linecap="round"/>
</g>
		<g transform="matrix(0.11 0 0 0.11 252.29 100.3)">
<polygon style="stroke: none; stroke-width: 1; stroke-dasharray: none; stroke-linecap: butt; stroke-dashoffset: 0; stroke-linejoin: miter; stroke-miterlimit: 4; fill: rgb(255,255,255); fill-rule: nonzero; opacity: 1;" vector-effect="non-scaling-stroke" points="64.07,-83.27 1.78,-9.03 -63.43,-83.27 -97.96,-83.27 -13.4,10.66 -13.4,83.28 14.37,83.28 14.37,10.01 97.96,-83.27 "/>
</g>
		<g transform="matrix(0.11 0 0 0.11 -40.98 100.3)">
<path style="stroke: none; stroke-width: 1; stroke-dasharray: none; stroke-linecap: butt; stroke-dashoffset: 0; stroke-linejoin: miter; stroke-miterlimit: 4; fill: rgb(255,255,255); fill-rule: nonzero; opacity: 1;" vector-effect="non-scaling-stroke" transform=" translate(-1971.24, -1860.74)" d="M 1955.58 1777.47 L 1864.56 1944.02 L 1891.99 1944.02 L 1913.29 1903.03 L 2025.95 1903.03 L 2047.25 1944.02 L 2077.92 1944.02 L 1985.28 1777.47 L 1955.58 1777.47 z M 1924.9199999999998 1881.72 L 1924.9199999999998 1881.72 L 1969.7799999999997 1796.51 L 2014.6399999999996 1881.72 L 1924.9099999999996 1881.72 L 1924.9199999999996 1881.72 z" stroke-linecap="round"/>
</g>
		<g transform="matrix(0.11 0 0 0.11 -13.15 100.29)">
<path style="stroke: none; stroke-width: 1; stroke-dasharray: none; stroke-linecap: butt; stroke-dashoffset: 0; stroke-linejoin: miter; stroke-miterlimit: 4; fill: rgb(255,255,255); fill-rule: nonzero; opacity: 1;" vector-effect="non-scaling-stroke" transform=" translate(-2216.55, -1860.74)" d="M 2266.09 1777.47 L 2131.82 1777.47 L 2131.82 1944.02 L 2159.5800000000004 1944.02 L 2159.5800000000004 1879.1399999999999 L 2266.0900000000006 1879.1399999999999 C 2278.140000000001 1879.1399999999999 2287.0100000000007 1876.6599999999999 2292.7300000000005 1871.7099999999998 C 2298.4200000000005 1866.7599999999998 2301.2700000000004 1858.4799999999998 2301.2700000000004 1846.85 L 2301.2700000000004 1809.74 C 2301.2700000000004 1798.1200000000001 2298.4100000000003 1789.84 2292.7300000000005 1784.88 C 2287.0200000000004 1779.93 2278.1400000000003 1777.45 2266.0900000000006 1777.45 L 2266.0900000000006 1777.45 z M 2273.2000000000003 1839.77 L 2273.2000000000003 1839.77 C 2273.2000000000003 1846.44 2271.8500000000004 1851.01 2269.1600000000003 1853.48 C 2266.4700000000003 1855.96 2261.7900000000004 1857.19 2255.1200000000003 1857.19 L 2159.5800000000004 1857.19 L 2159.5800000000004 1799.0900000000001 L 2255.1200000000003 1799.0900000000001 C 2261.7900000000004 1799.0900000000001 2266.4700000000003 1800.3300000000002 2269.1600000000003 1802.8000000000002 C 2271.8500000000004 1805.2800000000002 2273.2000000000003 1809.8500000000001 2273.2000000000003 1816.5200000000002 L 2273.2000000000003 1839.7700000000002 z" stroke-linecap="round"/>
</g>
		<g transform="matrix(0.11 0 0 0.11 13.73 100.29)">
<path style="stroke: none; stroke-width: 1; stroke-dasharray: none; stroke-linecap: butt; stroke-dashoffset: 0; stroke-linejoin: miter; stroke-miterlimit: 4; fill: rgb(255,255,255); fill-rule: nonzero; opacity: 1;" vector-effect="non-scaling-stroke" transform=" translate(-2454.11, -1860.74)" d="M 2503.66 1777.47 L 2369.3799999999997 1777.47 L 2369.3799999999997 1944.02 L 2397.1299999999997 1944.02 L 2397.1299999999997 1879.1399999999999 L 2503.66 1879.1399999999999 C 2515.71 1879.1399999999999 2524.58 1876.6599999999999 2530.29 1871.7099999999998 C 2535.99 1866.7599999999998 2538.84 1858.4799999999998 2538.84 1846.85 L 2538.84 1809.74 C 2538.84 1798.1200000000001 2535.98 1789.84 2530.29 1784.88 C 2524.59 1779.93 2515.71 1777.45 2503.66 1777.45 L 2503.66 1777.45 z M 2510.7599999999998 1839.77 L 2510.7599999999998 1839.77 C 2510.7599999999998 1846.44 2509.41 1851.01 2506.72 1853.48 C 2504.0299999999997 1855.96 2499.35 1857.19 2492.68 1857.19 L 2397.14 1857.19 L 2397.14 1799.0900000000001 L 2492.68 1799.0900000000001 C 2499.35 1799.0900000000001 2504.0299999999997 1800.3300000000002 2506.72 1802.8000000000002 C 2509.41 1805.2800000000002 2510.7599999999998 1809.8500000000001 2510.7599999999998 1816.5200000000002 L 2510.7599999999998 1839.7700000000002 z" stroke-linecap="round"/>
</g>
		<g transform="matrix(0.11 0 0 0.11 -153.58 100.3)">
<polygon style="stroke: none; stroke-width: 1; stroke-dasharray: none; stroke-linecap: butt; stroke-dashoffset: 0; stroke-linejoin: miter; stroke-miterlimit: 4; fill: rgb(255,255,255); fill-rule: nonzero; opacity: 1;" vector-effect="non-scaling-stroke" points="58.27,49.07 10.81,-83.27 -6.29,-83.27 -55.37,49.07 -100.54,-83.27 -128.63,-83.27 -68.27,83.28 -46.33,83.28 1.44,-42.6 47.62,83.28 68.27,83.28 128.63,-83.27 103.77,-83.27 "/>
</g>
		<g transform="matrix(0.11 0 0 0.11 -123.67 100.3)">
<polygon style="stroke: none; stroke-width: 1; stroke-dasharray: none; stroke-linecap: butt; stroke-dashoffset: 0; stroke-linejoin: miter; stroke-miterlimit: 4; fill: rgb(255,255,255); fill-rule: nonzero; opacity: 1;" vector-effect="non-scaling-stroke" points="-53.1,7.43 27.92,7.43 27.92,-14.52 -53.1,-14.52 -53.1,-61.01 79.57,-61.01 79.57,-83.27 -80.86,-83.27 -80.86,83.28 80.86,83.28 80.86,60.36 -53.1,60.36 "/>
</g>
		<g transform="matrix(0.11 0 0 0.11 -97.41 100.3)">
<path style="stroke: none; stroke-width: 1; stroke-dasharray: none; stroke-linecap: butt; stroke-dashoffset: 0; stroke-linejoin: miter; stroke-miterlimit: 4; fill: rgb(255,255,255); fill-rule: nonzero; opacity: 1;" vector-effect="non-scaling-stroke" transform=" translate(-1471.91, -1860.74)" d="M 1528.41 1857.52 C 1546.91 1855.37 1556.17 1845.9 1556.17 1829.11 L 1556.17 1809.74 C 1556.17 1798.1200000000001 1553.3100000000002 1789.84 1547.6100000000001 1784.89 C 1541.9 1779.94 1533.0300000000002 1777.46 1520.98 1777.46 L 1386.7 1777.46 L 1386.7 1944.01 L 1510.97 1944.01 C 1541.74 1944.01 1557.13 1933.15 1557.13 1911.41 L 1557.13 1890.1100000000001 C 1557.13 1870.7500000000002 1547.5600000000002 1859.88 1528.41 1857.5100000000002 L 1528.41 1857.5200000000002 z M 1414.46 1799.74 L 1414.46 1799.74 L 1510.64 1799.74 C 1516.66 1799.74 1521.0300000000002 1800.66 1523.71 1802.49 C 1526.4 1804.32 1527.75 1808.25 1527.75 1814.27 L 1527.75 1831.06 C 1527.75 1840.96 1522.05 1845.8999999999999 1510.64 1845.8999999999999 L 1414.46 1845.8999999999999 L 1414.46 1799.7399999999998 z M 1529.05 1901.41 L 1529.05 1901.41 C 1529.05 1908.73 1527.76 1913.8400000000001 1525.1699999999998 1916.75 C 1522.59 1919.66 1517.7499999999998 1921.1 1510.6499999999999 1921.1 L 1414.4699999999998 1921.1 L 1414.4699999999998 1867.52 L 1510.6499999999999 1867.52 C 1517.7499999999998 1867.52 1522.59 1869.03 1525.1699999999998 1872.04 C 1527.7599999999998 1875.06 1529.05 1880.22 1529.05 1887.53 L 1529.05 1901.41 L 1529.05 1901.41 z" stroke-linecap="round"/>
</g>
		<g transform="matrix(0.11 0 0 0.11 -70.43 100.3)">
<path style="stroke: none; stroke-width: 1; stroke-dasharray: none; stroke-linecap: butt; stroke-dashoffset: 0; stroke-linejoin: miter; stroke-miterlimit: 4; fill: rgb(255,255,255); fill-rule: nonzero; opacity: 1;" vector-effect="non-scaling-stroke" transform=" translate(-1710.57, -1860.75)" d="M 1768.34 1777.47 L 1653.11 1777.47 C 1638.05 1777.47 1627.77 1780.21 1622.29 1785.7 C 1616.8 1791.18 1614.06 1801.57 1614.06 1816.8500000000001 L 1614.06 1904.65 C 1614.06 1919.93 1616.8 1930.3100000000002 1622.29 1935.8000000000002 C 1627.77 1941.2800000000002 1638.05 1944.0300000000002 1653.11 1944.0300000000002 L 1768.34 1944.0300000000002 C 1783.3999999999999 1944.0300000000002 1793.6299999999999 1941.2800000000002 1799 1935.8000000000002 C 1804.38 1930.3200000000002 1807.07 1919.9400000000003 1807.07 1904.65 L 1807.07 1816.8500000000001 C 1807.07 1801.5700000000002 1804.3799999999999 1791.19 1799 1785.7 C 1793.62 1780.21 1783.39 1777.47 1768.34 1777.47 z M 1779.6399999999999 1920.78 L 1779.6399999999999 1920.78 L 1641.81 1920.78 L 1641.81 1800.06 L 1779.6399999999999 1800.06 L 1779.6399999999999 1920.78 z" stroke-linecap="round"/>
</g>
</g>
</g>
</svg>