<?xml version="1.0" encoding="utf-8" ?>
<svg xmlns="http://www.w3.org/2000/svg" xmlns:xlink="http://www.w3.org/1999/xlink" width="1023" height="1024">
	<path transform="scale(1.6 1.6)" d="M574.092 455.431C565.527 458.539 561.532 455.185 566.024 462.489C566.91 463.928 567.012 462.767 568.151 462.234L568.444 462.653C568.622 463.617 568.36 464.331 568.089 465.245L567.966 465.65L568.659 465.98L568.197 466.128C568.933 465.992 569.501 465.55 570.134 465.164C553.421 495.522 483.049 496.362 449.913 497.846C429.013 498.782 408.173 498.865 387.262 499.089L219.799 498.764C183.458 498.165 108.291 498.913 78.6502 474.02C75.3198 471.223 61.8425 458.235 63.2106 454.374C55.901 441.801 111.684 410.729 121.717 402.857C110.406 382.022 109.969 372.699 109.977 349.912L109.981 196.875C109.883 158.391 118.368 144.056 159.564 139.1C261.829 126.799 364.178 125.4 466.478 137.549L484.97 139.629C505.491 141.83 522.072 148.076 528.943 170.447C531.29 178.089 530.642 185.641 530.574 193.483L530.567 341.595C530.598 367.476 531.592 378.73 518.938 402.589C528.837 412.308 550.976 424.39 563.657 433.824C572.706 440.556 577.022 443.233 574.092 455.431ZM304.163 142.647C265.327 142.842 222.296 145.969 183.678 149.911L160.883 152.433C123.285 156.908 123.5 168.791 123.493 200.41L123.496 238.467C123.507 280.28 123.054 322.142 123.492 363.949C123.715 385.222 132.848 389.401 137.926 404.333C132.273 418.718 95.0036 433.331 83.678 445.62C107.959 445.093 132.211 444.572 156.475 443.352L294.119 435.917C307.416 435.455 320.74 434.984 334.043 435.586C407.989 438.199 482.734 445.175 556.295 445.293C546.349 437.027 505.376 415.057 504.463 403.606C504.113 399.223 507.41 395.881 509.35 392.267C516.571 378.822 517.183 366.069 517.186 351.24L517.193 204.701C517.225 168.379 518.2 157.644 480.675 152.773C436.913 147.093 392.274 143.874 348.124 142.752C333.484 142.38 318.808 142.923 304.163 142.647ZM314.705 448.898C273.762 449.425 232.985 452.114 192.134 454.692L127.09 458.017C113.097 458.681 95.6309 457.852 82.7486 459.796C110.631 486.225 183.682 484.644 223.744 485.143C257.664 485.565 292.039 485.313 325.781 486.162C380.733 486.36 450.234 488.09 503.799 480.258C525.687 477.058 540.87 474.135 557.947 459.412L510.57 457.748C452.438 455.575 394.464 450.638 336.286 449.065C329.096 448.87 321.894 449.116 314.705 448.898Z"/>
	<path transform="scale(1.6 1.6)" d="M341.078 392.281C321.085 391.923 301.042 392.202 281.044 392.202L163.748 392.225C138.086 392.211 137.254 374.734 137.254 354.009L137.243 191.636C137.262 170.562 148.431 167.288 167.02 165.669C210.093 161.917 256.511 155.807 299.73 156.406C351.013 155.344 401.742 158.259 452.773 163.568L471.888 165.592C505.819 169.267 503.481 176.612 503.475 209.245L503.472 331.09C503.473 337.927 504.276 369.852 502.743 374.294C496.375 392.753 483.874 392.218 468.319 392.214L442.222 392.197C408.518 392.182 374.778 391.874 341.078 392.281ZM300.628 169.835C286.806 169.917 157.636 176.77 152.442 182.776C149.165 186.566 150.97 222.865 150.97 229.672L150.948 351.074C150.941 362.263 146.876 378.037 162.544 378.65C169.431 378.92 176.403 378.713 183.298 378.714L340.781 378.712L464.547 378.713C473.845 378.711 488.462 381.509 489.919 368.558C490.632 362.221 490.015 353.365 490.012 346.767L490.007 225.213C490.009 212.001 491.033 198.344 489.842 185.189C485.275 178.183 472.649 179.277 465.305 178.532C433.412 175.299 401.563 172.522 369.534 170.882C346.031 169.679 324.071 170.131 300.628 169.835Z"/>
	<path transform="scale(1.6 1.6)" d="M348.436 343.505C323.718 361.808 317.609 362.009 292.727 344.062C259.233 319.905 236.894 278.464 230.53 238.021C226.311 211.211 245.861 219.431 257.265 213.107C269.239 206.468 274.631 191.584 286.621 190.102C292.83 189.834 297.444 193.604 302.944 195.871C331.571 207.667 346.283 186.562 358.708 190.877C368.362 194.23 373.164 211.131 388.29 215.526C401.41 219.339 413.436 213.423 409.687 239.305C404.03 278.36 380.446 319.682 348.436 343.505ZM285.993 203.969C274.168 219.198 263.759 228.831 243.615 230.43C246.029 276.54 279.696 323.656 320.001 344.657C329.518 340.319 338.25 334.487 346.317 327.851C370.247 306.493 396.575 264.02 396.574 230.42C368.266 227.748 370.023 217.658 353.749 204.309C335.378 211.135 321.565 217.042 300.791 209.797C296.36 208.252 290.513 204.444 285.993 203.969Z"/>
	<path transform="scale(1.6 1.6)" d="M310.055 276.915C317.87 270.123 340.14 241.738 346.622 239.429C348.724 239.486 350.404 239.869 352.002 241.325C358.873 247.588 347.684 256.404 343.791 260.762C337.243 268.094 330.732 275.503 323.914 282.588C313.749 293.151 307.75 294.611 296.894 283.869C291.846 278.343 286.514 266.913 298.554 267.923C303.631 268.349 306.962 273.39 310.055 276.915Z"/>
	<path transform="scale(1.6 1.6)" d="M475.358 419.377C458.332 420.11 441.15 419.65 424.107 419.651L223.206 419.644C214.446 419.645 168.004 421.129 163.089 418.858C156.145 415.65 159.293 408.545 165.385 406.316C172.011 405.644 181.316 406.226 188.236 406.235L449.594 406.242C457.786 406.24 466.165 405.809 474.333 406.19C482.349 406.563 484.233 417.662 475.358 419.377Z"/>
	<path transform="scale(1.6 1.6)" d="M297.539 467.231C299.061 464.011 300.825 460.791 304.681 460.125C311.901 459.876 341.33 457.285 343.21 464.833C344.25 469.008 339.204 472.123 335.79 472.75C324.787 473.263 303.071 477.261 297.539 467.231Z"/>
	<path transform="scale(1.6 1.6)" d="M570.134 465.164L570.272 465.038L570.134 465.164Z"/>
</svg>
