<?xml version="1.0" encoding="UTF-8"?>
<!DOCTYPE svg PUBLIC "-//W3C//DTD SVG 1.1//EN" "http://www.w3.org/Graphics/SVG/1.1/DTD/svg11.dtd">
<!-- Creator: CorelDRAW -->
<svg xmlns="http://www.w3.org/2000/svg" xml:space="preserve" width="5.49334in" height="2.29128in" version="1.1" style="shape-rendering:geometricPrecision; text-rendering:geometricPrecision; image-rendering:optimizeQuality; fill-rule:evenodd; clip-rule:evenodd"
viewBox="0 0 4660.78 1944.02"
 xmlns:xlink="http://www.w3.org/1999/xlink"
 xmlns:xodm="http://www.corel.com/coreldraw/odm/2003">
 <defs>
  <style type="text/css">
   <![CDATA[
    .fil1 {fill:#1E1F1F;fill-rule:nonzero}
    .fil0 {fill:#282E56;fill-rule:nonzero}
   ]]>
  </style>
 </defs>
 <g id="_23Layer_x0020_1">
  <metadata id="CorelCorpID_0Corel-Layer"/>
  <g id="_362385208">
   <g>
    <path class="fil0" d="M-0 0l835.54 1628.16c8.03,15.66 24.15,25.51 41.75,25.51l332.13 0c17.73,0 33.94,-9.99 41.91,-25.82l152.98 -303.72c5.91,-11.74 17.93,-19.15 31.08,-19.15 12.85,0 24.64,7.08 30.69,18.41l163.44 306.09c8.16,15.28 24.07,24.83 41.4,24.83l325.21 0c17.59,0 33.71,-9.84 41.75,-25.49l625.88 -1218.97c18.25,-35.55 -7.56,-77.83 -47.53,-77.83l-199.02 0c-20.07,0 -38.44,11.24 -47.57,29.11l-501.94 981.92c-6.46,12.64 -19.46,20.59 -33.65,20.59 -14.14,0 -27.1,-7.89 -33.58,-20.46l-507.14 -982.25c-9.17,-17.76 -27.49,-28.91 -47.47,-28.91l-202.06 0c-40.19,0 -65.99,42.71 -47.29,78.28l275.49 524.07c5.23,9.94 5.33,21.8 0.28,31.84l-189.15 375.67c-6.42,12.75 -19.48,20.8 -33.76,20.8l-13.16 0c-14.21,0 -27.22,-7.97 -33.68,-20.64l-669.67 -1314.26c-8,-15.69 -24.06,-25.61 -41.67,-25.74l-291.18 -2.04 0 -0.01z"/>
   </g>
   <g>
    <path class="fil0" d="M2816.11 360.31l-627.81 1225.34c-16,31.23 6.68,68.33 41.77,68.33l218.85 0c17.44,0 33.45,-9.67 41.55,-25.11l103.69 -197.46c8.53,-16.26 25.38,-26.44 43.74,-26.44l585.96 0c25.66,0 42.23,-27.17 30.47,-49.98l-86.57 -168.02c-10.73,-20.81 -32.18,-33.89 -55.6,-33.89l-341.33 0c-17.65,0 -29.01,-18.72 -20.86,-34.38l259.95 -499.22 43.27 0 513.68 1008.62c8.08,15.86 24.41,25.78 42.2,25.63 143.3,-1.21 770.25,-6.48 812.24,-6.48 47.43,0 238.43,-98.71 238.43,-273.05 0,-174.34 0,-1066.55 0,-1146.03 0,-79.48 -129.47,-224.34 -256.38,-224.34l-3614.77 0c-40.53,0 -62.16,47.75 -35.43,78.22l137.15 156.34c8.95,10.2 21.87,16.05 35.43,16.05l3371.22 0c26.92,0 87.81,19.87 87.81,79.48 0,59.61 3.2,935.15 3.2,959.51 0,24.36 -16.66,107.68 -84.61,107.68l-493.11 0c-22.32,0 -42.8,-12.39 -53.16,-32.17l-527.18 -1007.19c-9.17,-17.52 -27.25,-28.54 -47.02,-28.65l-318.94 -1.86c-20.16,-0.12 -38.67,11.12 -47.86,29.06l0 0.01z"/>
   </g>
  </g>
 </g>
 <g id="_23Layer_x0020_6">
  <metadata id="CorelCorpID_1Corel-Layer"/>
  <g id="_362334776">
   <path class="fil1" d="M2821.27 1790.38c-13.34,-8.61 -34.65,-12.91 -63.91,-12.91l-91.67 0 0 166.55 91.67 0c29.48,0 50.78,-4.3 63.91,-12.91 23.02,-15.06 34.54,-38.84 34.54,-71.33 0,-14.2 -2.9,-27.22 -8.71,-39.06 -6.03,-12.91 -14.64,-23.02 -25.82,-30.34l-0 0zm-13.88 118.78l0 0c-10.97,7.75 -28.94,11.62 -53.9,11.62l-60.04 0 0 -120.72 60.04 0c24.31,0 42.06,3.77 53.26,11.3 13.77,9.25 20.66,25.4 20.66,48.42 0,23.67 -6.68,40.13 -20.02,49.38l0 0z"/>
   <polygon class="fil1" points="2926.5,1944.02 2954.26,1944.02 2954.26,1777.47 2926.5,1777.47 "/>
   <path class="fil1" d="M3169.87 1846.54l-104.9 0 0 -46.48 117.81 0 0 24.21 23.89 -6.78c0,-15.5 -2.69,-26.03 -8.07,-31.63 -5.38,-5.6 -15.71,-8.39 -30.98,-8.39l-88.77 0c-15.07,0 -25.29,2.74 -30.67,8.23 -5.38,5.49 -8.07,15.87 -8.07,31.15 0,21.3 1.29,34.54 3.87,39.7 4.73,9.47 16.35,14.2 34.86,14.2l104.58 0 0 50.03 -123.94 0 0 -26.79 -25.82 6.14c0,17 2.26,28.29 6.78,33.89 5.17,6.67 15.92,10.01 32.28,10.01l97.16 0c15.06,0 25.29,-2.75 30.67,-8.23 5.38,-5.49 8.07,-15.86 8.07,-31.15l0 -18.72c0,-15.06 -2.7,-25.39 -8.07,-30.99 -5.38,-5.59 -15.6,-8.39 -30.67,-8.39l0 -0z"/>
   <path class="fil1" d="M3461.66 1832.67c0,-21.95 -1.19,-35.51 -3.55,-40.67 -4.52,-9.68 -16.25,-14.53 -35.19,-14.53l-93.28 0c-15.06,0 -25.34,2.74 -30.82,8.23 -5.49,5.49 -8.23,15.87 -8.23,31.15l0 87.79c0,15.29 2.74,25.66 8.23,31.15 5.48,5.48 15.76,8.23 30.82,8.23l93.28 0c15.28,0 25.55,-2.75 30.83,-8.23 5.27,-5.49 7.9,-15.86 7.9,-31.15l0 -19.69 -27.75 -5.81 0 41.63 -115.56 0 0 -120.72 115.56 0 0 37.77 27.75 -5.16 0.01 0.01z"/>
   <path class="fil1" d="M3686.96 1777.47l-115.23 0c-15.06,0 -25.34,2.74 -30.82,8.23 -5.49,5.48 -8.23,15.87 -8.23,31.15l0 87.8c0,15.28 2.74,25.66 8.23,31.15 5.48,5.48 15.76,8.23 30.82,8.23l115.23 0c15.06,0 25.29,-2.75 30.66,-8.23 5.37,-5.48 8.07,-15.86 8.07,-31.15l0 -87.8c0,-15.28 -2.69,-25.66 -8.07,-31.15 -5.38,-5.49 -15.61,-8.23 -30.66,-8.23zm11.3 143.31l0 0 -137.83 0 0 -120.72 137.83 0 0 120.72z"/>
   <polygon class="fil1" points="3872.24,1916.26 3798.64,1777.47 3768.62,1777.47 3859.65,1944.02 3882.89,1944.02 3970.03,1777.47 3942.6,1777.47 "/>
   <polygon class="fil1" points="4051.7,1868.17 4132.72,1868.17 4132.72,1846.22 4051.7,1846.22 4051.7,1799.73 4184.36,1799.73 4184.36,1777.47 4023.94,1777.47 4023.94,1944.02 4185.66,1944.02 4185.66,1921.1 4051.7,1921.1 "/>
   <path class="fil1" d="M4401.91 1877.21c12.91,-3.66 19.37,-13.77 19.37,-30.34l0 -37.11c0,-11.62 -2.86,-19.9 -8.55,-24.86 -5.7,-4.95 -14.58,-7.43 -26.63,-7.43l-134.27 0 0 166.56 27.75 0 0 -64.88 49.07 0 67.78 64.88 41.32 0 -76.18 -64.88c22.81,0 36.26,-0.64 40.35,-1.94l0 0zm-122.34 -19.68l0 0 0 -58.43 95.55 0c6.67,0 11.35,1.24 14.04,3.71 2.69,2.48 4.04,6.94 4.04,13.39l0 24.21c0,6.68 -1.35,11.19 -4.04,13.56 -2.7,2.37 -7.38,3.55 -14.04,3.55l-95.55 0 0 0z"/>
   <polygon class="fil1" points="4626.89,1777.47 4564.6,1851.71 4499.39,1777.47 4464.86,1777.47 4549.42,1871.4 4549.42,1944.02 4577.19,1944.02 4577.19,1870.75 4660.78,1777.47 "/>
   <path class="fil1" d="M1955.58 1777.47l-91.02 166.55 27.43 0 21.3 -40.99 112.66 0 21.3 40.99 30.67 0 -92.64 -166.55 -29.7 0zm-30.66 104.25l0 0 44.86 -85.21 44.86 85.21 -89.73 0 0.01 0z"/>
   <path class="fil1" d="M2266.09 1777.47l-134.27 0 0 166.55 27.76 0 0 -64.88 106.51 0c12.05,0 20.92,-2.48 26.64,-7.43 5.69,-4.95 8.54,-13.23 8.54,-24.86l0 -37.11c0,-11.62 -2.86,-19.9 -8.54,-24.86 -5.71,-4.95 -14.59,-7.43 -26.64,-7.43l0 0zm7.11 62.3l0 0c0,6.67 -1.35,11.24 -4.04,13.71 -2.69,2.48 -7.37,3.71 -14.04,3.71l-95.54 0 0 -58.1 95.54 0c6.67,0 11.35,1.24 14.04,3.71 2.69,2.48 4.04,7.05 4.04,13.72l0 23.25z"/>
   <path class="fil1" d="M2503.66 1777.47l-134.28 0 0 166.55 27.75 0 0 -64.88 106.53 0c12.05,0 20.92,-2.48 26.63,-7.43 5.7,-4.95 8.55,-13.23 8.55,-24.86l0 -37.11c0,-11.62 -2.86,-19.9 -8.55,-24.86 -5.7,-4.95 -14.58,-7.43 -26.63,-7.43l0 0zm7.1 62.3l0 0c0,6.67 -1.35,11.24 -4.04,13.71 -2.69,2.48 -7.37,3.71 -14.04,3.71l-95.54 0 0 -58.1 95.54 0c6.67,0 11.35,1.24 14.04,3.71 2.69,2.48 4.04,7.05 4.04,13.72l0 23.25z"/>
   <polygon class="fil1" points="1034.88,1909.81 987.43,1777.47 970.32,1777.47 921.25,1909.81 876.07,1777.47 847.99,1777.47 908.34,1944.02 930.29,1944.02 978.06,1818.14 1024.23,1944.02 1044.88,1944.02 1105.24,1777.47 1080.38,1777.47 "/>
   <polygon class="fil1" points="1186.58,1868.17 1267.6,1868.17 1267.6,1846.22 1186.58,1846.22 1186.58,1799.73 1319.24,1799.73 1319.24,1777.47 1158.82,1777.47 1158.82,1944.02 1320.53,1944.02 1320.53,1921.1 1186.58,1921.1 "/>
   <path class="fil1" d="M1528.41 1857.52c18.5,-2.15 27.76,-11.62 27.76,-28.41l0 -19.37c0,-11.62 -2.86,-19.9 -8.56,-24.85 -5.71,-4.95 -14.58,-7.43 -26.63,-7.43l-134.28 0 0 166.55 124.27 0c30.77,0 46.16,-10.86 46.16,-32.6l0 -21.3c0,-19.36 -9.57,-30.23 -28.72,-32.6l-0 0.01zm-113.95 -57.78l0 0 96.18 0c6.02,0 10.39,0.92 13.07,2.75 2.69,1.83 4.04,5.76 4.04,11.78l0 16.79c0,9.9 -5.7,14.84 -17.11,14.84l-96.18 0 0 -46.16zm114.59 101.67l0 0c0,7.32 -1.29,12.43 -3.88,15.34 -2.58,2.91 -7.42,4.35 -14.52,4.35l-96.18 0 0 -53.58 96.18 0c7.1,0 11.94,1.51 14.52,4.52 2.59,3.02 3.88,8.18 3.88,15.49l0 13.88 0 -0z"/>
   <path class="fil1" d="M1768.34 1777.47l-115.23 0c-15.06,0 -25.34,2.74 -30.82,8.23 -5.49,5.48 -8.23,15.87 -8.23,31.15l0 87.8c0,15.28 2.74,25.66 8.23,31.15 5.48,5.48 15.76,8.23 30.82,8.23l115.23 0c15.06,0 25.29,-2.75 30.66,-8.23 5.38,-5.48 8.07,-15.86 8.07,-31.15l0 -87.8c0,-15.28 -2.69,-25.66 -8.07,-31.15 -5.38,-5.49 -15.61,-8.23 -30.66,-8.23zm11.3 143.31l0 0 -137.83 0 0 -120.72 137.83 0 0 120.72z"/>
  </g>
 </g>
</svg>
